<?xml version="1.0" standalone="no"?>
<!DOCTYPE svg PUBLIC "-//W3C//DTD SVG 1.1//EN" "http://www.w3.org/Graphics/SVG/1.1/DTD/svg11.dtd" >
<svg xmlns="http://www.w3.org/2000/svg">
<metadata></metadata>
<defs>
<font id="monofontoregular" horiz-adv-x="819" >
<font-face units-per-em="2048" ascent="1638" descent="-410" />
<missing-glyph horiz-adv-x="500" />
<glyph />
<glyph />
<glyph unicode="&#xd;" />
<glyph unicode=" " />
<glyph unicode="!" d="M303 109q0 53 27.5 95t79.5 42q51 0 82 -45q24 -39 24 -92t-24 -91q-31 -43 -82 -43t-82 43q-25 37 -25 91zM315 412v774h189v-774h-189z" />
<glyph unicode="&#x22;" d="M250 702v383h100v-383h-100zM467 702v383h102v-383h-102z" />
<glyph unicode="#" d="M-51 301l41 133h172l67 230h-182l41 133h178l90 311h119l-88 -311h191l92 311h116l-88 -311h172l-41 -133h-172l-63 -230h176l-39 -133h-176l-90 -311h-119l90 311h-192l-90 -311h-119l88 311h-174zM279 432h198l66 232h-199z" />
<glyph unicode="$" d="M84 317l186 -2q8 -53 46 -90t92 -37q59 0 98 39t39 99q0 90 -119 147q-201 98 -217 113q-119 92 -119 264q0 133 70.5 224t201.5 112v172h95v-170q242 -53 256 -320h-181q-6 59 -40.5 101.5t-90.5 42.5q-55 0 -91 -41t-36 -97q0 -84 119 -143q199 -98 223 -117 q119 -94 119 -258q0 -299 -278 -354v-174h-95v172q-258 39 -278 317z" />
<glyph unicode="%" d="M-162 807v149q0 250 215 250t215 -250v-149q0 -250 -215 -250t-215 250zM-33 807q0 -141 86 -141q88 0 88 141v149q0 141 -88 142q-86 0 -86 -142v-149zM127 -23l465 1229h98l-465 -1229h-98zM549 229v150q0 250 215 250q217 0 217 -250v-150q0 -252 -217 -252 q-215 0 -215 252zM678 229q0 -141 86 -141q88 0 88 141v150q0 141 -88 141q-86 0 -86 -141v-150z" />
<glyph unicode="&#x26;" d="M-37 307q0 244 230 379q-96 135 -97 256q0 115 71 190.5t183 75.5q109 0 176.5 -69.5t67.5 -177.5q0 -164 -176 -302l164 -235l155 174l117 -149l-172 -187l174 -262h-229l-78 127q-139 -150 -295 -150q-131 0 -213 101q-78 94 -78 229zM152 334q0 -57 32.5 -104.5 t89.5 -47.5q78 1 170 99l-168 262q-125 -86 -124 -209zM260 977q0 -78 72 -180q110 88 110 170q0 109 -94 108q-39 0 -63.5 -28.5t-24.5 -69.5z" />
<glyph unicode="'" d="M358 702v383h103v-383h-103z" />
<glyph unicode="(" d="M240 438q0 385 213 762l127 -119q-178 -319 -179 -647q0 -328 179 -641l-127 -121q-213 381 -213 766z" />
<glyph unicode=")" d="M240 -209q180 319 180 647t-180 643l127 119q213 -377 213 -764q0 -385 -213 -764z" />
<glyph unicode="*" d="M150 932l34 127l224 -154l-56 305h115l-55 -305l223 154l35 -127l-256 -35l190 -211l-90 -80l-104 287l-105 -287l-90 80l191 211z" />
<glyph unicode="+" d="M45 391v131h309v389h113v-389h307v-131h-307v-391h-113v391h-309z" />
<glyph unicode="," d="M293 -190l63 440l170 -43l-94 -430z" />
<glyph unicode="-" d="M272 348v191h275v-191h-275z" />
<glyph unicode="." d="M303 102q0 53 27.5 92t79.5 39q49 0 77.5 -40t28.5 -91t-27.5 -89t-78.5 -38t-79 38t-28 89z" />
<glyph unicode="/" d="M223 -152l277 1362h96l-277 -1362h-96z" />
<glyph unicode="0" d="M94 365v458q0 383 316 383q315 0 315 -383v-458q0 -387 -315 -388q-315 0 -316 388zM293 375q0 -213 117 -213q116 0 116 213v436q0 215 -116 215q-117 0 -117 -215v-436z" />
<glyph unicode="1" d="M219 764v213l381 213v-1190h-190v874z" />
<glyph unicode="2" d="M90 831q16 375 320 375q147 0 233 -95t86 -245q0 -129 -72 -248l-237 -397h301v-221h-623l379 698q59 109 60 158q0 61 -31 105q-37 47 -96 47q-123 0 -129 -177h-191z" />
<glyph unicode="3" d="M82 344q0 14 2 29h186v-19q-2 -74 31 -123q39 -59 111 -59q66 0 106 64q33 53 33 122q0 66 -29 115q-35 57 -94 66v159q55 8 88 60q31 45 31 104q0 70 -35 117q-37 55 -102 55q-113 0 -134 -131h-172q10 135 91 222t215 87q137 0 221 -97t84 -236q0 -154 -123 -254 q145 -101 145 -277q0 -162 -82 -260q-86 -106 -245 -106q-156 0 -244 104q-84 98 -84 258z" />
<glyph unicode="4" d="M88 258v207l297 721h260v-740h86v-188h-86v-258h-186v258h-371zM223 446h246v594z" />
<glyph unicode="5" d="M92 223l168 90q51 -121 148 -120q63 0 98 63q25 49 24 121q0 66 -32 119q-39 61 -103 61q-66 0 -100 -74h-168v703h530v-207h-362v-281q84 45 145 45q139 0 217 -114q70 -101 70 -248q0 -162 -82 -275q-92 -129 -248 -129q-227 0 -305 246z" />
<glyph unicode="6" d="M88 360q0 160 111 375l235 451h221l-268 -486q25 2 47 2q297 0 297 -346q0 -156 -80 -264q-90 -117 -241 -117q-152 0 -242 121q-80 106 -80 264zM283 356q0 -68 28 -118q35 -61 99 -62q63 0 98 64q29 48 29 118q0 68 -29 117q-35 59 -98 60q-63 0 -99 -60 q-29 -51 -28 -119z" />
<glyph unicode="7" d="M100 979v207h619l-385 -1186h-211l342 979h-365z" />
<glyph unicode="8" d="M84 350q0 178 145 277q-125 100 -125 252q0 143 83 237t223 94q137 0 221 -96t84 -235q0 -154 -125 -254q145 -99 145 -277q0 -162 -80 -260q-88 -106 -245 -106q-158 0 -246 106q-80 100 -80 262zM268 356q0 -72 35 -125q39 -59 109 -59q66 0 104 61q35 53 35 123 q0 72 -33 125q-39 59 -108 60q-66 0 -107 -62q-35 -53 -35 -123zM272 864q0 -66 38 -117t102 -51q61 0 100 56q35 46 35 112q0 68 -36 119t-101 51q-66 0 -102 -51t-36 -119z" />
<glyph unicode="9" d="M86 829q0 156 82 263q90 119 242 118q154 0 241 -118q82 -109 82 -267q0 -162 -112 -372l-236 -453h-219l268 485q-25 -2 -47 -2q-154 0 -229 99q-72 90 -72 247zM283 827q0 -68 30 -116q35 -59 99 -60q61 0 96 60q31 50 31 118t-31 119q-35 61 -96 62q-63 0 -99 -62 q-31 -51 -30 -121z" />
<glyph unicode=":" d="M303 109q0 53 27.5 94t79.5 41q51 0 79 -45q27 -37 27 -90q0 -55 -27.5 -94.5t-78.5 -39.5t-79 40t-28 94zM303 700q0 53 27.5 94.5t79.5 41.5q51 0 78.5 -41.5t27.5 -94.5t-27 -90q-29 -43 -79 -43q-51 0 -80 43q-27 37 -27 90z" />
<glyph unicode=";" d="M291 -188l61 446l172 -43l-94 -438zM313 700q0 53 29 94.5t80 41.5t80 -45q26 -38 26 -91t-27.5 -93t-78.5 -40t-80 40t-29 93z" />
<glyph unicode="&#x3c;" d="M53 381v149l713 363v-145l-580 -293l580 -291v-146z" />
<glyph unicode="=" d="M45 217v129h729v-129h-729zM45 565v129h729v-129h-729z" />
<glyph unicode="&#x3e;" d="M53 18v146l580 291l-580 293v145l713 -363v-149z" />
<glyph unicode="?" d="M117 905q2 133 80.5 221t212.5 88q129 0 210.5 -89t81.5 -220q0 -115 -59 -198q-4 -4 -113 -117q-59 -63 -59 -129v-23h-188v60q0 106 110.5 223t110.5 190q0 47 -29 82t-76 35q-88 0 -98 -123h-184zM272 111q0 53 28 94t79 41q53 0 80.5 -41t27.5 -94q0 -55 -26 -93 q-29 -43 -82 -43q-51 0 -79 41t-28 95z" />
<glyph unicode="@" d="M57 608q0 147 33 271q41 147 123 243q100 119 236 119q160 0 245 -164q68 -129 68 -305q0 -117 -29 -217q-39 -131 -112 -182q-39 -27 -66 -27q-74 0 -86 137q-55 -135 -121 -135q-117 0 -117 211q0 117 37 221q49 141 142 142q53 0 90 -103l26 80h58l-56 -383 q-2 -14 -2 -27q0 -63 35 -63q76 0 117 141q29 102 29 203q0 145 -58 254q-72 133 -205 133q-113 0 -196 -98q-68 -80 -103 -201q-33 -113 -32 -248q0 -176 59 -301q76 -164 234 -164q133 0 235 117l25 -57q-115 -141 -252 -142q-86 0 -160 50q-197 131 -197 495zM303 555 q0 -137 62 -137q82 0 114 233q10 68 10 74q0 39 -16 78q-20 51 -53 51q-16 0 -35 -14q-82 -59 -82 -285z" />
<glyph unicode="A" d="M53 0l250 1186h211l252 -1186h-227l-39 193h-195l-41 -193h-211zM338 383h129l-64 358z" />
<glyph unicode="B" d="M86 0v1186h346q135 0 207 -85t72 -222q0 -164 -158 -271q180 -82 180 -270q0 -338 -319 -338h-328zM279 184h100q68 0 110 58q39 50 39 120q0 78 -46 129.5t-124 51.5h-79v-359zM279 674h43q98 0 143 38t45 134t-44 134t-140 38h-47v-344z" />
<glyph unicode="C" d="M80 365v458q0 172 78 273q85 110 249 110h3q295 0 325 -317h-205q-29 123 -120 123q-66 0 -101 -70q-29 -57 -28 -131v-436q0 -76 26 -135q35 -78 103 -78q61 0 98 67q27 53 31 125h200q-2 -170 -80 -268q-86 -109 -249 -109q-166 0 -252 113q-78 100 -78 275z" />
<glyph unicode="D" d="M80 6v1180h336q324 0 323 -363v-458q0 -358 -323 -359h-336zM276 195h140q127 0 127 180v436q0 74 -27 127q-33 68 -100 68h-140v-811z" />
<glyph unicode="E" d="M109 0v1186h602v-189h-389v-303h309v-190h-309v-303h389v-201h-602z" />
<glyph unicode="F" d="M109 0v1186h602v-189h-389v-303h323v-190h-323v-504h-213z" />
<glyph unicode="G" d="M98 365v458q0 168 70 269q79 114 239 114h3q281 0 309 -317h-195q-29 123 -114 123q-63 0 -97 -72q-26 -55 -26 -124v-5v-436q0 -74 26 -135q33 -78 97 -78q63 0 96 78q26 59 26 130v5v127h-96v170h285v-670h-156v102q-18 -45 -70.5 -86t-97.5 -41q-299 0 -299 388z" />
<glyph unicode="H" d="M84 0v1186h211v-484h229v484h211v-1186h-211v502h-229v-502h-211z" />
<glyph unicode="I" d="M133 0v190h178v807h-178v189h553v-189h-174v-807h174v-190h-553z" />
<glyph unicode="J" d="M121 -25v218q219 0 270 24q94 45 94 238v542h-112v189h325v-750q0 -461 -350 -461h-227z" />
<glyph unicode="K" d="M98 0v1186h213v-531l176 531h220l-209 -553l223 -633h-217l-193 555v-555h-213z" />
<glyph unicode="L" d="M119 0v1186h211v-985h370v-201h-581z" />
<glyph unicode="M" d="M63 0v1186h213l134 -457l145 457h201v-1186h-191v694l-155 -485l-156 485v-694h-191z" />
<glyph unicode="N" d="M92 0v1186h232l198 -692v692h205v-1186h-217l-209 690v-690h-209z" />
<glyph unicode="O" d="M68 365v458q0 172 87 277.5t255 105.5t258 -108q84 -102 84 -275v-458q0 -174 -84 -277q-90 -111 -258 -111t-258 111q-84 102 -84 277zM268 375q0 -74 33 -137q41 -76 109 -76t108 76q33 63 33 137v436q0 74 -33 137q-41 78 -108 78q-68 0 -109 -78q-33 -63 -33 -137 v-436z" />
<glyph unicode="P" d="M82 0v1186h330q162 0 247 -117q78 -104 78 -270q0 -395 -338 -396h-106v-403h-211zM293 604h4q115 0 166 39q59 47 59 160q0 115 -61 158q-48 34 -161 34h-7v-391z" />
<glyph unicode="Q" d="M84 365v458q0 172 76 273q83 110 247 110h3q166 0 249 -110q76 -100 76 -273v-458q0 -221 -137 -334l84 -238h-174l-66 187q-20 -2 -32 -3q-166 0 -250 115q-76 100 -76 273zM283 375q0 -76 26 -135q35 -78 101 -78t100 78q27 59 27 135v436q0 76 -27 137q-35 78 -100 78 q-66 0 -101 -78q-26 -59 -26 -132v-5v-436z" />
<glyph unicode="R" d="M70 0v1186h309q164 0 258 -105q88 -100 88 -266q0 -281 -236 -313l261 -502h-256l-211 455v-455h-213zM283 604h55q170 0 170 199q0 192 -174 192h-2h-49v-391z" />
<glyph unicode="S" d="M70 309h194q18 -125 144 -125q61 0 101 35t40 96q0 92 -123 152q-207 102 -225 119q-123 94 -123 274q0 152 84 243t235 91q313 0 330 -313h-190q-12 131 -134 131q-135 0 -135 -127q0 -66 76 -119q37 -25 133 -68q141 -66 199 -129q74 -82 74 -223q0 -166 -93.5 -265 t-259.5 -99q-303 0 -327 327z" />
<glyph unicode="T" d="M78 985v201h663v-201h-225v-985h-213v985h-225z" />
<glyph unicode="U" d="M80 365v821h201v-811q0 -76 26 -135q35 -78 103 -78t102 78q27 59 27 135v811h200v-821q0 -174 -77 -275q-84 -113 -252 -113t-252 113q-78 100 -78 275z" />
<glyph unicode="V" d="M53 1186h213l150 -742l151 742h199l-250 -1186h-211z" />
<glyph unicode="W" d="M33 1186h215l39 -651l123 450l122 -450l39 651h215l-139 -1186h-137l-100 502l-101 -502h-137z" />
<glyph unicode="X" d="M53 0l234 590l-234 596h242l115 -305l114 305h242l-234 -596l234 -590h-246l-110 297l-111 -297h-246z" />
<glyph unicode="Y" d="M39 1186h250l121 -443l120 443h250l-264 -713v-473h-213v473z" />
<glyph unicode="Z" d="M57 0l396 995h-367v191h676l-393 -985h370v-201h-682z" />
<glyph unicode="[" d="M254 -326v1512h311v-131h-151v-1250h151v-131h-311z" />
<glyph unicode="\" d="M223 1210h96l277 -1362h-96z" />
<glyph unicode="]" d="M254 -195h149v1250h-149v131h311v-1512h-311v131z" />
<glyph unicode="^" d="M63 719l263 385h168l262 -385h-117l-229 274l-230 -274h-117z" />
<glyph unicode="_" d="M102 -260h615v-127h-615v127z" />
<glyph unicode="`" d="M143 1534h224l168 -225h-170z" />
<glyph unicode="a" d="M78 238q0 117 88 190q84 68 203 68q115 0 184 -66q0 240 -137 240q-100 0 -131 -90l-174 55q45 100 92 145q61 55 159 56q160 0 265 -80q115 -88 114 -244v-512h-188v141q-29 -159 -205 -159h-2q-115 0 -191.5 71.5t-76.5 184.5zM279 238q0 -43 38.5 -72t83.5 -29 q102 0 152 127v49q-61 37 -127 37q-57 0 -98 -26q-49 -33 -49 -86z" />
<glyph unicode="b" d="M68 0v1186h188v-543q92 193 225 193q88 0 160 -84q57 -70 86 -168q25 -85 25 -181q0 -145 -62 -268q-76 -153 -205 -153h-2q-137 0 -233 192v-174h-182zM256 410q0 -90 31 -164q41 -96 119 -96t118 96q29 74 29 166q0 90 -31 161q-39 94 -116 95q-78 0 -119 -95 q-31 -72 -31 -163z" />
<glyph unicode="c" d="M98 408q0 174 90 294q100 133 269 134q145 0 250 -105l-109 -147q-55 63 -127 63q-86 0 -137 -80q-41 -68 -41 -161q0 -92 41 -160q51 -80 137 -80q84 0 139 84l111 -148q-109 -125 -264 -125q-168 0 -269 134q-90 121 -90 297z" />
<glyph unicode="d" d="M61 410q0 152 62 274q78 152 213 152q139 0 242 -181v531h180v-1186h-187v174q-92 -190 -231 -190q-133 0 -213 153q-66 127 -66 273zM260 412q0 -92 31 -166q43 -94 125 -94q80 0 123 94q32 72 32 164t-32 165q-43 94 -125 95q-80 0 -123 -95q-31 -72 -31 -163z" />
<glyph unicode="e" d="M51 401q0 174 92 301q102 139 271 140q172 0 268 -156q80 -131 86 -317l-518 -2q6 -84 49 -146q51 -74 127 -74q84 0 131 89l182 -43q-100 -219 -321 -220q-168 0 -271 133q-96 121 -96 295zM246 451h332q-10 82 -50 143q-47 74 -120 74q-74 0 -119 -74q-35 -61 -43 -143 z" />
<glyph unicode="f" d="M127 643v176h106v123q0 141 78 201q68 55 211 55h170v-194h-170q-68 0 -86 -48q-12 -27 -12 -106l2 -31h123v-176h-125v-643h-191v643h-106z" />
<glyph unicode="g" d="M68 -217l79 133q100 -106 218 -106q205 0 204 374q-76 -211 -217 -211q-92 0 -168 88q-61 72 -92 172q-22 79 -22 165v8q0 266 161 380q61 43 125 43q139 0 215 -178v164h181v-754q0 -399 -357 -399q-186 0 -327 121zM266 408q0 -92 31 -164q41 -98 119 -99q78 0 119 97 q30 74 30 164q0 92 -30 163q-41 96 -119 97q-78 0 -119 -97q-31 -72 -31 -161z" />
<glyph unicode="h" d="M109 0v1186h190v-549q106 184 240 184q88 0 135 -86q37 -70 37 -168v-567h-191v485q0 162 -106 162q-115 0 -115 -186v-461h-190z" />
<glyph unicode="i" d="M150 0v190h176v439h-176v190h364v-629h156v-190h-520zM315 1069q0 51 28 90t77 39t75.5 -39t26.5 -90t-26.5 -90t-75.5 -39t-77 39t-28 90z" />
<glyph unicode="j" d="M195 -139h157q76 0 76 114v654h-168v190h358v-844q0 -313 -243 -313h-92.5h-87.5v199zM445.5 1159q27.5 39 76.5 39t76 -39t27 -90t-25 -88q-29 -43 -78 -43t-78 43q-26 36 -26 84q0 55 27.5 94z" />
<glyph unicode="k" d="M92 0v1186h191v-715l202 348h213l-221 -377l250 -442h-225l-219 391v-391h-191z" />
<glyph unicode="l" d="M231 997v189h357v-1186h-189v997h-168z" />
<glyph unicode="m" d="M45 0v815h180v-131q10 49 43 90q37 49 82 49q76 0 121 -139q18 53 65.5 97t98.5 44q78 0 113 -98q26 -66 26 -155v-7v-565h-190v481q0 39 -17 97q-18 71 -44 71h-1q-47 0 -47 -192v-457h-131v481q0 168 -45 168q-27 0 -47 -84q-16 -66 -16 -108v-457h-191z" />
<glyph unicode="n" d="M94 0v815h180v-178q118 192 260 192h1q190 0 190 -264v-565h-190v481q0 162 -109 162q-66 0 -103.5 -58.5t-37.5 -127.5v-457h-191z" />
<glyph unicode="o" d="M59 408q0 172 86 292q98 135 265 136q166 0 262 -136q88 -120 88 -292t-88 -293q-96 -137 -262 -138q-166 0 -265 138q-86 121 -86 293zM258 406q0 -86 33 -154q41 -86 119 -86t118 86q33 68 33 156q0 86 -33 153q-41 86 -118 86q-78 0 -119 -86q-33 -68 -33 -155z" />
<glyph unicode="p" d="M61 -326v1141h189v-176q92 192 228 192h1q133 0 213 -157q66 -128 66 -275q0 -145 -66 -270q-78 -152 -211 -152q-141 0 -239 193v-496h-181zM250 406q0 -92 33 -164q41 -96 123 -97q80 0 122 97q33 72 33 164t-33 163q-43 94 -122 95q-82 0 -123 -95q-33 -72 -33 -163z " />
<glyph unicode="q" d="M61 406q0 150 62 272q77 153 211 153h2q137 0 242 -178v162h180v-1141h-187v496q-92 -190 -231 -190q-133 0 -213 153q-66 127 -66 273zM260 408q0 -94 31 -166q43 -96 125 -97q80 0 123 97q32 72 32 164t-32 165q-43 94 -125 95q-80 0 -123 -95q-31 -72 -31 -163z" />
<glyph unicode="r" d="M98 0h191v457q0 70 36.5 128t104.5 58q82 0 102 -96l189 96q-28 186 -182 186q-143 0 -260 -192v178h-181v-815z" />
<glyph unicode="s" d="M135 209h182q12 -94 86 -94q39 0 66 27.5t27 64.5q0 61 -90 104q-154 74 -168 84q-88 66 -88 185q0 115 70.5 185.5t185.5 70.5q104 0 177.5 -56.5t84.5 -158.5l-174 -3q-14 86 -84 87q-37 0 -61.5 -27t-24.5 -62q0 -59 94 -102q152 -70 172 -84q94 -69 94 -190t-76 -192 t-198 -71q-252 0 -275 232z" />
<glyph unicode="t" d="M156 641v176h104v221h189v-221h114v-176h-114v-369q0 -84 86 -84h129v-192h-218q-96 0 -141 36t-45 132v477h-104z" />
<glyph unicode="u" d="M111 295v520h190v-493q0 -162 109 -162t108 162v493h191v-520q0 -150 -77 -234t-222 -84q-147 0 -223 84t-76 234z" />
<glyph unicode="v" d="M66 815h206l140 -534l135 534h207l-234 -815h-221z" />
<glyph unicode="w" d="M39 815h203l65 -446l103 446l102 -446l66 446h202l-153 -815h-148l-69 315l-70 -315h-147z" />
<glyph unicode="x" d="M86 0l215 418l-203 397h203l107 -280l106 280h211l-207 -409l215 -406h-207l-116 291l-109 -291h-215z" />
<glyph unicode="y" d="M68 815h208l138 -579l137 579h201l-318 -1141h-198l77 281z" />
<glyph unicode="z" d="M121 0l291 639h-271v176h557l-295 -639h279v-176h-561z" />
<glyph unicode="{" d="M193 322v139h6q158 -2 157 229q0 27 -2 73t-2 64q0 172 29 220q41 72 199 71q18 0 47 -2v-141h-17q-72 2 -98 -49q-18 -35 -18 -119v-191q0 -102 -43 -149q-35 -39 -140 -76q104 -37 140 -74q43 -47 43 -149v-191q0 -92 22 -124q27 -43 111 -41v-144h-45 q-139 0 -183.5 47t-44.5 187v78q2 53 2 77q0 131 -20 181q-35 86 -143 84z" />
<glyph unicode="|" d="M352 -387v1573h115v-1573h-115z" />
<glyph unicode="}" d="M193 -190h18q72 -2 96 49q18 35 19 118v191q0 102 43 149q35 37 139 74q-104 37 -139 76q-43 47 -43 149v191q0 90 -23 125q-27 43 -110 43v141h45q117 2 172 -37t55 -200v-201q0 -104 27 -150q35 -63 135 -65v-141h-11q-154 2 -153 -230q0 -25 2 -71t2 -64 q0 -170 -27 -217q-41 -72 -194 -72h-53v142z" />
<glyph unicode="~" d="M37 342v133q43 33 89 65.5t99 32.5q66 0 190 -49t189 -49q51 0 98 29q6 4 80 65v-135q-72 -57 -82 -63q-47 -29 -100 -29q-66 0 -188.5 49t-190.5 49q-53 0 -100 -30q-4 -2 -84 -68z" />
<glyph unicode="&#xa0;" />
<glyph unicode="&#xa1;" d="M303 715q0 -53 25 -92q31 -45 82 -45t82 45q24 39 24 92t-24 90q-31 43 -82 43t-79 -40t-28 -93zM315 -362h189v774h-189v-774z" />
<glyph unicode="&#xa2;" />
<glyph unicode="&#xa3;" />
<glyph unicode="&#xa4;" />
<glyph unicode="&#xa5;" />
<glyph unicode="&#xa6;" />
<glyph unicode="&#xa7;" />
<glyph unicode="&#xa8;" d="M129 1430q0 41 32 65.5t75 24.5q41 0 73.5 -26t32.5 -64q0 -41 -31.5 -66t-74.5 -25q-41 0 -74 25t-33 66zM477 1430q0 39 33 64.5t74 25.5t73.5 -26t32.5 -64q0 -41 -31.5 -66t-74.5 -25q-41 0 -74 25t-33 66z" />
<glyph unicode="&#xa9;" />
<glyph unicode="&#xaa;" />
<glyph unicode="&#xab;" />
<glyph unicode="&#xac;" />
<glyph unicode="&#xad;" d="M272 348v191h275v-191h-275z" />
<glyph unicode="&#xae;" />
<glyph unicode="&#xaf;" />
<glyph unicode="&#xb0;" />
<glyph unicode="&#xb1;" />
<glyph unicode="&#xb2;" />
<glyph unicode="&#xb3;" />
<glyph unicode="&#xb4;" d="M215 1309h168l221 225h-223z" />
<glyph unicode="&#xb5;" />
<glyph unicode="&#xb6;" />
<glyph unicode="&#xb7;" />
<glyph unicode="&#xb8;" d="M256 -299q35 -4 47 -4q47 0 84 31.5t37 78.5q0 74 -84 74q-10 0 -23 -2l113 178h59l-51 -80q125 -29 125 -145q0 -82 -65.5 -131t-149.5 -49q-39 0 -92 6v43z" />
<glyph unicode="&#xb9;" />
<glyph unicode="&#xba;" />
<glyph unicode="&#xbb;" />
<glyph unicode="&#xbc;" />
<glyph unicode="&#xbd;" />
<glyph unicode="&#xbe;" />
<glyph unicode="&#xbf;" d="M117 -53q0 115 59 198q4 4 113 117q59 63 59 129v23h189v-60q0 -106 -111 -223t-111 -190q0 -47 29 -82t76 -35q88 0 98 123h184q-2 -133 -80.5 -221t-211.5 -88q-129 0 -211 89t-82 220zM332 741q0 55 27.5 95.5t80.5 40.5q51 0 79 -41t28 -95q0 -53 -27.5 -94 t-79.5 -41q-53 0 -80.5 41t-27.5 94z" />
<glyph unicode="&#xc0;" d="M53 0l250 1186h211l252 -1186h-227l-39 193h-195l-41 -193h-211zM143 1534h224l168 -225h-170zM338 383h129l-64 358z" />
<glyph unicode="&#xc1;" d="M53 0l250 1186h211l252 -1186h-227l-39 193h-195l-41 -193h-211zM215 1309h168l221 225h-223zM338 383h129l-64 358z" />
<glyph unicode="&#xc2;" d="M53 0l250 1186h211l252 -1186h-227l-39 193h-195l-41 -193h-211zM129 1319l147 209h267l147 -209h-172l-110 133l-109 -133h-170zM338 383h129l-64 358z" />
<glyph unicode="&#xc3;" d="M53 0l250 1186h211l252 -1186h-227l-39 193h-195l-41 -193h-211zM98 1331q4 203 183 203q70 0 174 -54.5t143 -54.5q70 0 94 109h29q0 -131 -94 -182q-45 -23 -90 -23q-70 0 -176.5 55.5t-141.5 55.5q-47 0 -67 -39q-9 -13 -23 -70h-31zM338 383h129l-64 358z" />
<glyph unicode="&#xc4;" d="M53 0l250 1186h211l252 -1186h-227l-39 193h-195l-41 -193h-211zM129 1430q0 41 32 65.5t75 24.5q41 0 73.5 -26t32.5 -64q0 -41 -31.5 -66t-74.5 -25q-41 0 -74 25t-33 66zM338 383h129l-64 358zM477 1430q0 39 33 64.5t74 25.5t73.5 -26t32.5 -64q0 -41 -31.5 -66 t-74.5 -25q-41 0 -74 25t-33 66z" />
<glyph unicode="&#xc5;" d="M53 0l250 1186h211l252 -1186h-227l-39 193h-195l-41 -193h-211zM217 1421q0 76 57.5 126t135.5 50t135 -50t57 -126q0 -78 -57.5 -128t-134.5 -50q-78 0 -135.5 50t-57.5 128zM287 1421q0 -49 35.5 -80.5t87.5 -31.5q49 0 84.5 31.5t35.5 80.5q0 47 -35.5 80t-84.5 33 t-86 -32t-37 -81zM338 383h129l-64 358z" />
<glyph unicode="&#xc6;" d="M41 0l250 1186h446v-189h-162v-303h162v-190h-162v-303h162v-201h-354v190l-92 3l-39 -193h-211zM326 383l57 6v320z" />
<glyph unicode="&#xc7;" d="M80 365v458q0 172 78 273q86 111 252 110q295 0 325 -317h-205q-29 123 -120 123q-66 0 -101 -70q-29 -57 -28 -131v-436q0 -76 26 -135q35 -78 103 -78q61 0 98 67q27 53 31 125h200q-2 -170 -80 -268q-86 -109 -249 -109q-166 0 -252 113q-78 100 -78 275zM262 -299 q35 -4 47 -4q47 0 84 31.5t37 78.5q0 74 -84 74q-10 0 -23 -2l113 178h59l-51 -80q125 -29 125 -145q0 -82 -65.5 -131t-149.5 -49q-39 0 -92 6v43z" />
<glyph unicode="&#xc8;" d="M109 0v1186h602v-189h-389v-303h309v-190h-309v-303h389v-201h-602zM143 1534h224l168 -225h-170z" />
<glyph unicode="&#xc9;" d="M109 0v1186h602v-189h-389v-303h309v-190h-309v-303h389v-201h-602zM215 1309h168l221 225h-223z" />
<glyph unicode="&#xca;" d="M109 0v1186h602v-189h-389v-303h309v-190h-309v-303h389v-201h-602zM129 1319l147 209h267l147 -209h-172l-110 133l-109 -133h-170z" />
<glyph unicode="&#xcb;" d="M109 0v1186h602v-189h-389v-303h309v-190h-309v-303h389v-201h-602zM129 1430q0 41 32 65.5t75 24.5q41 0 73.5 -26t32.5 -64q0 -41 -31.5 -66t-74.5 -25q-41 0 -74 25t-33 66zM477 1430q0 39 33 64.5t74 25.5t73.5 -26t32.5 -64q0 -41 -31.5 -66t-74.5 -25q-41 0 -74 25 t-33 66z" />
<glyph unicode="&#xcc;" d="M113 0v190h178v807h-178v189h553v-189h-174v-807h174v-190h-553zM143 1534h224l168 -225h-170z" />
<glyph unicode="&#xcd;" d="M127 0v190h178v807h-178v189h553v-189h-174v-807h174v-190h-553zM188 1309h168l221 225h-223z" />
<glyph unicode="&#xce;" d="M115 1319l147 209h267l147 -209h-172l-110 133l-109 -133h-170zM119 0v190h178v807h-178v189h553v-189h-174v-807h174v-190h-553z" />
<glyph unicode="&#xcf;" d="M90 1430q0 41 32 65.5t75 24.5q41 0 73.5 -26t32.5 -64q0 -41 -31.5 -66t-74.5 -25q-41 0 -74 25t-33 66zM115 0v190h178v807h-178v189h553v-189h-174v-807h174v-190h-553zM438 1430q0 39 33 64.5t74 25.5t73.5 -26t32.5 -64q0 -41 -31.5 -66t-74.5 -25q-41 0 -74 25 t-33 66z" />
<glyph unicode="&#xd0;" d="M41 492v190h338v-190h-338zM96 6v1180h338q324 0 324 -363v-458q0 -358 -324 -359h-338zM295 195h139q127 0 127 180v436q0 74 -26 127q-33 68 -101 68h-139v-811z" />
<glyph unicode="&#xd1;" d="M74 0v1186h232l198 -692v692h205v-1186h-217l-209 690v-690h-209zM80 1331q4 203 183 203q70 0 174 -54.5t143 -54.5q70 0 94 109h29q0 -131 -94 -182q-45 -23 -90 -23q-70 0 -176.5 55.5t-141.5 55.5q-47 0 -67 -39q-9 -13 -23 -70h-31z" />
<glyph unicode="&#xd2;" d="M68 365v458q0 172 87 277.5t255 105.5t258 -108q84 -102 84 -275v-458q0 -174 -84 -277q-90 -111 -258 -111t-258 111q-84 102 -84 277zM184 1534h224l168 -225h-170zM268 375q0 -74 33 -137q41 -76 109 -76t108 76q33 63 33 137v436q0 74 -33 137q-41 78 -108 78 q-68 0 -109 -78q-33 -63 -33 -137v-436z" />
<glyph unicode="&#xd3;" d="M64 365v458q0 172 87 277.5t255 105.5t258 -108q84 -102 84 -275v-458q0 -174 -84 -277q-90 -111 -258 -111t-258 111q-84 102 -84 277zM211 1309h168l221 225h-223zM264 375q0 -74 33 -137q41 -76 109 -76t108 76q33 63 33 137v436q0 74 -33 137q-41 78 -108 78 q-68 0 -109 -78q-33 -63 -33 -137v-436z" />
<glyph unicode="&#xd4;" d="M72 365v458q0 172 87 277.5t255 105.5t258 -108q84 -102 84 -275v-458q0 -174 -84 -277q-90 -111 -258 -111t-258 111q-84 102 -84 277zM133 1319l147 209h267l147 -209h-172l-110 133l-109 -133h-170zM272 375q0 -74 33 -137q41 -76 109 -76t108 76q33 63 33 137v436 q0 74 -33 137q-41 78 -108 78q-68 0 -109 -78q-33 -63 -33 -137v-436z" />
<glyph unicode="&#xd5;" d="M62 365v458q0 172 87 277.5t255 105.5t258 -108q84 -102 84 -275v-458q0 -174 -84 -277q-90 -111 -258 -111t-258 111q-84 102 -84 277zM92 1331q4 203 183 203q70 0 174 -54.5t143 -54.5q70 0 94 109h29q0 -131 -94 -182q-45 -23 -90 -23q-70 0 -176.5 55.5t-141.5 55.5 q-47 0 -67 -39q-9 -13 -23 -70h-31zM262 375q0 -74 33 -137q41 -76 109 -76t108 76q33 63 33 137v436q0 74 -33 137q-41 78 -108 78q-68 0 -109 -78q-33 -63 -33 -137v-436z" />
<glyph unicode="&#xd6;" d="M88 365v458q0 172 87 277.5t255 105.5t258 -108q84 -102 84 -275v-458q0 -174 -84 -277q-90 -111 -258 -111t-258 111q-84 102 -84 277zM149 1430q0 41 32 65.5t75 24.5q41 0 73.5 -26t32.5 -64q0 -41 -31.5 -66t-74.5 -25q-41 0 -74 25t-33 66zM288 375q0 -74 33 -137 q41 -76 109 -76t108 76q33 63 33 137v436q0 74 -33 137q-41 78 -108 78q-68 0 -109 -78q-33 -63 -33 -137v-436zM497 1430q0 39 33 64.5t74 25.5t73.5 -26t32.5 -64q0 -41 -31.5 -66t-74.5 -25q-41 0 -74 25t-33 66z" />
<glyph unicode="&#xd7;" />
<glyph unicode="&#xd8;" d="M68 365v458q0 172 87 277.5t255 105.5t258 -108q84 -102 84 -275v-458q0 -174 -84 -277q-90 -111 -258 -111t-258 111q-84 102 -84 277zM223 -152l277 1362h96l-277 -1362h-96zM268 375q0 -74 33 -137q41 -76 109 -76t108 76q33 63 33 137v436q0 74 -33 137 q-41 78 -108 78q-68 0 -109 -78q-33 -63 -33 -137v-436z" />
<glyph unicode="&#xd9;" d="M80 365v821h201v-811q0 -76 26 -135q35 -78 103 -78t102 78q27 59 27 135v811h200v-821q0 -174 -77 -275q-84 -113 -252 -113t-252 113q-78 100 -78 275zM143 1534h224l168 -225h-170z" />
<glyph unicode="&#xda;" d="M80 365v821h201v-811q0 -76 26 -135q35 -78 103 -78t102 78q27 59 27 135v811h200v-821q0 -174 -77 -275q-84 -113 -252 -113t-252 113q-78 100 -78 275zM215 1309h168l221 225h-223z" />
<glyph unicode="&#xdb;" d="M80 365v821h201v-811q0 -76 26 -135q35 -78 103 -78t102 78q27 59 27 135v811h200v-821q0 -174 -77 -275q-84 -113 -252 -113t-252 113q-78 100 -78 275zM129 1319l147 209h267l147 -209h-172l-110 133l-109 -133h-170z" />
<glyph unicode="&#xdc;" d="M80 365v821h201v-811q0 -76 26 -135q35 -78 103 -78t102 78q27 59 27 135v811h200v-821q0 -174 -77 -275q-84 -113 -252 -113t-252 113q-78 100 -78 275zM129 1430q0 41 32 65.5t75 24.5q41 0 73.5 -26t32.5 -64q0 -41 -31.5 -66t-74.5 -25q-41 0 -74 25t-33 66z M477 1430q0 39 33 64.5t74 25.5t73.5 -26t32.5 -64q0 -41 -31.5 -66t-74.5 -25q-41 0 -74 25t-33 66z" />
<glyph unicode="&#xdd;" d="M39 1186h250l121 -443l120 443h250l-264 -713v-473h-213v473zM215 1309h168l221 225h-223z" />
<glyph unicode="&#xde;" />
<glyph unicode="&#xdf;" d="M104 0v903q0 133 85 221t221 88q137 0 221 -97t84 -236q0 -154 -123 -254q145 -100 145 -277q0 -162 -82 -260q-86 -106 -245 -106l2 190q66 0 106 64q33 53 33 122q0 66 -29 115q-35 57 -94 66v159q55 8 88 60q31 45 31 104q0 70 -35 117q-37 55 -102 55 q-57 0 -95.5 -38t-38.5 -93v-903h-172z" />
<glyph unicode="&#xe0;" d="M78 238q0 117 88 190q84 68 203 68q115 0 184 -66q0 240 -137 240q-100 0 -131 -90l-174 55q45 100 92 145q61 55 159 56q160 0 265 -80q115 -88 114 -244v-512h-188v141q-29 -160 -207 -159q-115 0 -191.5 71.5t-76.5 184.5zM143 1124h224l168 -225h-170zM279 238 q0 -43 38.5 -72t83.5 -29q102 0 152 127v49q-61 37 -127 37q-57 0 -98 -26q-49 -33 -49 -86z" />
<glyph unicode="&#xe1;" d="M78 238q0 117 88 190q84 68 203 68q115 0 184 -66q0 240 -137 240q-100 0 -131 -90l-174 55q45 100 92 145q61 55 159 56q160 0 265 -80q115 -88 114 -244v-512h-188v141q-29 -160 -207 -159q-115 0 -191.5 71.5t-76.5 184.5zM215 899h168l221 225h-223zM279 238 q0 -43 38.5 -72t83.5 -29q102 0 152 127v49q-61 37 -127 37q-57 0 -98 -26q-49 -33 -49 -86z" />
<glyph unicode="&#xe2;" d="M78 238q0 117 88 190q84 68 203 68q115 0 184 -66q0 240 -137 240q-100 0 -131 -90l-174 55q45 100 92 145q61 55 159 56q160 0 265 -80q115 -88 114 -244v-512h-188v141q-29 -160 -207 -159q-115 0 -191.5 71.5t-76.5 184.5zM129 909l147 209h267l147 -209h-172 l-110 133l-109 -133h-170zM279 238q0 -43 38.5 -72t83.5 -29q102 0 152 127v49q-61 37 -127 37q-57 0 -98 -26q-49 -33 -49 -86z" />
<glyph unicode="&#xe3;" d="M78 238q0 117 88 190q84 68 203 68q115 0 184 -66q0 240 -137 240q-100 0 -131 -90l-174 55q45 100 92 145q61 55 159 56q160 0 265 -80q115 -88 114 -244v-512h-188v141q-29 -160 -207 -159q-115 0 -191.5 71.5t-76.5 184.5zM98 921q4 203 183 203q70 0 174 -54.5 t143 -54.5q70 0 94 109h29q0 -131 -94 -182q-45 -23 -90 -23q-70 0 -176.5 55.5t-141.5 55.5q-47 0 -67 -39q-9 -13 -23 -70h-31zM279 238q0 -43 38.5 -72t83.5 -29q102 0 152 127v49q-61 37 -127 37q-57 0 -98 -26q-49 -33 -49 -86z" />
<glyph unicode="&#xe4;" d="M78 238q0 117 88 190q84 68 203 68q115 0 184 -66q0 240 -137 240q-100 0 -131 -90l-174 55q45 100 92 145q61 55 159 56q160 0 265 -80q115 -88 114 -244v-512h-188v141q-29 -160 -207 -159q-115 0 -191.5 71.5t-76.5 184.5zM129 1020q0 41 32 65.5t75 24.5 q41 0 73.5 -26t32.5 -64q0 -41 -31.5 -66t-74.5 -25q-41 0 -74 25t-33 66zM279 238q0 -43 38.5 -72t83.5 -29q102 0 152 127v49q-61 37 -127 37q-57 0 -98 -26q-49 -33 -49 -86zM477 1020q0 39 33 64.5t74 25.5t73.5 -26t32.5 -64q0 -41 -31.5 -66t-74.5 -25q-41 0 -74 25 t-33 66z" />
<glyph unicode="&#xe5;" d="M78 238q0 117 88 190q84 68 203 68q115 0 184 -66q0 240 -137 240q-100 0 -131 -90l-174 55q45 100 92 145q61 55 159 56q160 0 265 -80q115 -88 114 -244v-512h-188v141q-29 -160 -207 -159q-115 0 -191.5 71.5t-76.5 184.5zM217 1011q0 76 57.5 126t135.5 50t135 -50 t57 -126q0 -78 -57.5 -128t-134.5 -50q-78 0 -135.5 50t-57.5 128zM279 238q0 -43 38.5 -72t83.5 -29q102 0 152 127v49q-61 37 -127 37q-57 0 -98 -26q-49 -33 -49 -86zM287 1011q0 -49 35.5 -80.5t87.5 -31.5q49 0 84.5 31.5t35.5 80.5q0 47 -35.5 80t-84.5 33t-86 -32 t-37 -81z" />
<glyph unicode="&#xe6;" d="M20 238q0 106 50.5 183t132.5 77q72 0 127 -68q0 244 -76 244q-45 0 -70 -94l-137 55q70 205 205 205q96 0 164 -105q68 109 162 109q121 0 186 -170q49 -131 53 -305l-325 -2q14 -221 86 -222q37 0 75 91l142 -43q-29 -82 -103 -147.5t-141 -65.5q-108 -1 -180 161 q-25 -162 -154 -161q-84 0 -140.5 74.5t-56.5 183.5zM178 238q0 -37 15 -66q16 -35 45 -35q53 0 92 127v49q-45 35 -84 35q-68 0 -68 -110zM489 451h179q-20 217 -93 217q-72 0 -86 -217z" />
<glyph unicode="&#xe7;" d="M98 408q0 174 90 294q100 133 269 134q145 0 250 -105l-109 -147q-55 63 -127 63q-86 0 -137 -80q-41 -68 -41 -161q0 -92 41 -160q51 -80 137 -80q84 0 139 84l111 -148q-109 -125 -264 -125q-168 0 -269 134q-90 121 -90 297zM238 -299q35 -4 47 -4q47 0 84 31.5 t37 78.5q0 74 -84 74q-10 0 -23 -2l113 178h59l-51 -80q125 -29 125 -145q0 -82 -65.5 -131t-149.5 -49q-39 0 -92 6v43z" />
<glyph unicode="&#xe8;" d="M51 401q0 174 92 301q102 139 271 140q172 0 268 -156q80 -131 86 -317l-518 -2q6 -84 49 -146q51 -74 127 -74q84 0 131 89l182 -43q-100 -219 -321 -220q-168 0 -271 133q-96 121 -96 295zM143 1124h224l168 -225h-170zM246 451h332q-10 82 -50 143q-47 74 -120 74 q-74 0 -119 -74q-35 -61 -43 -143z" />
<glyph unicode="&#xe9;" d="M51 401q0 174 92 301q102 139 271 140q172 0 268 -156q80 -131 86 -317l-518 -2q6 -84 49 -146q51 -74 127 -74q84 0 131 89l182 -43q-100 -219 -321 -220q-168 0 -271 133q-96 121 -96 295zM215 899h168l221 225h-223zM246 451h332q-10 82 -50 143q-47 74 -120 74 q-74 0 -119 -74q-35 -61 -43 -143z" />
<glyph unicode="&#xea;" d="M51 401q0 174 92 301q102 139 271 140q172 0 268 -156q80 -131 86 -317l-518 -2q6 -84 49 -146q51 -74 127 -74q84 0 131 89l182 -43q-100 -219 -321 -220q-168 0 -271 133q-96 121 -96 295zM129 909l147 209h267l147 -209h-172l-110 133l-109 -133h-170zM246 451h332 q-10 82 -50 143q-47 74 -120 74q-74 0 -119 -74q-35 -61 -43 -143z" />
<glyph unicode="&#xeb;" d="M51 401q0 174 92 301q102 139 271 140q172 0 268 -156q80 -131 86 -317l-518 -2q6 -84 49 -146q51 -74 127 -74q84 0 131 89l182 -43q-100 -219 -321 -220q-168 0 -271 133q-96 121 -96 295zM129 1020q0 41 32 65.5t75 24.5q41 0 73.5 -26t32.5 -64q0 -41 -31.5 -66 t-74.5 -25q-41 0 -74 25t-33 66zM246 451h332q-10 82 -50 143q-47 74 -120 74q-74 0 -119 -74q-35 -61 -43 -143zM477 1020q0 39 33 64.5t74 25.5t73.5 -26t32.5 -64q0 -41 -31.5 -66t-74.5 -25q-41 0 -74 25t-33 66z" />
<glyph unicode="&#xec;" d="M110 1124h224l168 -225h-170zM158 0v190h176v439h-176v190h364v-629h156v-190h-520z" />
<glyph unicode="&#xed;" d="M136 0v190h176v439h-176v190h364v-629h156v-190h-520zM283 899h168l221 225h-223z" />
<glyph unicode="&#xee;" d="M109 909l147 209h267l147 -209h-172l-110 133l-109 -133h-170zM170 0v190h176v439h-176v190h364v-629h156v-190h-520z" />
<glyph unicode="&#xef;" d="M127 1020q0 41 32 65.5t75 24.5q41 0 73.5 -26t32.5 -64q0 -41 -31.5 -66t-74.5 -25q-41 0 -74 25t-33 66zM148 0v190h176v439h-176v190h364v-629h156v-190h-520zM475 1020q0 39 33 64.5t74 25.5t73.5 -26t32.5 -64q0 -41 -31.5 -66t-74.5 -25q-41 0 -74 25t-33 66z" />
<glyph unicode="&#xf0;" />
<glyph unicode="&#xf1;" d="M94 0v815h180v-178q119 193 261 192q190 0 190 -264v-565h-190v481q0 162 -109 162q-66 0 -103.5 -58.5t-37.5 -127.5v-457h-191zM98 921q4 203 183 203q70 0 174 -54.5t143 -54.5q70 0 94 109h29q0 -131 -94 -182q-45 -23 -90 -23q-70 0 -176.5 55.5t-141.5 55.5 q-47 0 -67 -39q-9 -13 -23 -70h-31z" />
<glyph unicode="&#xf2;" d="M59 408q0 172 86 292q98 135 265 136q166 0 262 -136q88 -120 88 -292t-88 -293q-96 -137 -262 -138q-166 0 -265 138q-86 121 -86 293zM143 1124h224l168 -225h-170zM258 406q0 -86 33 -154q41 -86 119 -86t118 86q33 68 33 156q0 86 -33 153q-41 86 -118 86 q-78 0 -119 -86q-33 -68 -33 -155z" />
<glyph unicode="&#xf3;" d="M59 408q0 172 86 292q98 135 265 136q166 0 262 -136q88 -120 88 -292t-88 -293q-96 -137 -262 -138q-166 0 -265 138q-86 121 -86 293zM215 899h168l221 225h-223zM258 406q0 -86 33 -154q41 -86 119 -86t118 86q33 68 33 156q0 86 -33 153q-41 86 -118 86 q-78 0 -119 -86q-33 -68 -33 -155z" />
<glyph unicode="&#xf4;" d="M59 408q0 172 86 292q98 135 265 136q166 0 262 -136q88 -120 88 -292t-88 -293q-96 -137 -262 -138q-166 0 -265 138q-86 121 -86 293zM129 909l147 209h267l147 -209h-172l-110 133l-109 -133h-170zM258 406q0 -86 33 -154q41 -86 119 -86t118 86q33 68 33 156 q0 86 -33 153q-41 86 -118 86q-78 0 -119 -86q-33 -68 -33 -155z" />
<glyph unicode="&#xf5;" d="M59 408q0 172 86 292q98 135 265 136q166 0 262 -136q88 -120 88 -292t-88 -293q-96 -137 -262 -138q-166 0 -265 138q-86 121 -86 293zM98 921q4 203 183 203q70 0 174 -54.5t143 -54.5q70 0 94 109h29q0 -131 -94 -182q-45 -23 -90 -23q-70 0 -176.5 55.5t-141.5 55.5 q-47 0 -67 -39q-9 -13 -23 -70h-31zM258 406q0 -86 33 -154q41 -86 119 -86t118 86q33 68 33 156q0 86 -33 153q-41 86 -118 86q-78 0 -119 -86q-33 -68 -33 -155z" />
<glyph unicode="&#xf6;" d="M59 408q0 172 86 292q98 135 265 136q166 0 262 -136q88 -120 88 -292t-88 -293q-96 -137 -262 -138q-166 0 -265 138q-86 121 -86 293zM129 1020q0 41 32 65.5t75 24.5q41 0 73.5 -26t32.5 -64q0 -41 -31.5 -66t-74.5 -25q-41 0 -74 25t-33 66zM258 406q0 -86 33 -154 q41 -86 119 -86t118 86q33 68 33 156q0 86 -33 153q-41 86 -118 86q-78 0 -119 -86q-33 -68 -33 -155zM477 1020q0 39 33 64.5t74 25.5t73.5 -26t32.5 -64q0 -41 -31.5 -66t-74.5 -25q-41 0 -74 25t-33 66z" />
<glyph unicode="&#xf7;" />
<glyph unicode="&#xf8;" d="M59 408q0 172 86 292q98 135 265 136q166 0 262 -136q88 -120 88 -292t-88 -293q-96 -137 -262 -138q-166 0 -265 138q-86 121 -86 293zM223 -117l277 1092h98l-279 -1092h-96zM258 406q0 -86 33 -154q41 -86 119 -86t118 86q33 68 33 156q0 86 -33 153q-41 86 -118 86 q-78 0 -119 -86q-33 -68 -33 -155z" />
<glyph unicode="&#xf9;" d="M111 295v520h190v-493q0 -162 109 -162t108 162v493h191v-520q0 -150 -77 -234t-222 -84q-147 0 -223 84t-76 234zM143 1124h224l168 -225h-170z" />
<glyph unicode="&#xfa;" d="M111 295v520h190v-493q0 -162 109 -162t108 162v493h191v-520q0 -150 -77 -234t-222 -84q-147 0 -223 84t-76 234zM215 899h168l221 225h-223z" />
<glyph unicode="&#xfb;" d="M111 295v520h190v-493q0 -162 109 -162t108 162v493h191v-520q0 -150 -77 -234t-222 -84q-147 0 -223 84t-76 234zM129 909l147 209h267l147 -209h-172l-110 133l-109 -133h-170z" />
<glyph unicode="&#xfc;" d="M111 295v520h190v-493q0 -162 109 -162t108 162v493h191v-520q0 -150 -77 -234t-222 -84q-147 0 -223 84t-76 234zM129 1020q0 41 32 65.5t75 24.5q41 0 73.5 -26t32.5 -64q0 -41 -31.5 -66t-74.5 -25q-41 0 -74 25t-33 66zM477 1020q0 39 33 64.5t74 25.5t73.5 -26 t32.5 -64q0 -41 -31.5 -66t-74.5 -25q-41 0 -74 25t-33 66z" />
<glyph unicode="&#xfd;" d="M68 815h208l138 -579l137 579h201l-318 -1141h-198l77 281zM215 899h168l221 225h-223z" />
<glyph unicode="&#xfe;" />
<glyph unicode="&#xff;" d="M68 815h208l138 -579l137 579h201l-318 -1141h-198l77 281zM129 1020q0 41 32 65.5t75 24.5q41 0 73.5 -26t32.5 -64q0 -41 -31.5 -66t-74.5 -25q-41 0 -74 25t-33 66zM477 1020q0 39 33 64.5t74 25.5t73.5 -26t32.5 -64q0 -41 -31.5 -66t-74.5 -25q-41 0 -74 25t-33 66z " />
<glyph unicode="&#x152;" d="M35 365v458q0 184 53 275q68 109 229 108q70 0 123 -20h324v-189h-143v-303h143v-190h-143v-303h143v-201h-322q-53 -23 -125 -23q-162 0 -229 111q-53 90 -53 277zM236 375q0 -119 4 -137q12 -76 77 -76q63 0 76 76q4 16 4 137v436q0 121 -4 137q-12 78 -76 78 q-66 0 -77 -78q-4 -16 -4 -137v-436z" />
<glyph unicode="&#x153;" d="M68 408q0 203 67 321q61 106 150 107q80 0 137 -91q63 98 145 99q88 0 148 -115q70 -129 73 -360l-286 -2q16 -221 53 -222q25 0 66 91l145 -43q-82 -219 -209 -220q-80 1 -137 93q-57 -88 -135 -89q-88 0 -150 107q-68 121 -67 324zM227 406q0 -242 58 -242q55 0 55 244 q0 242 -55 241q-57 0 -58 -243zM500 451h135q-20 217 -70 217q-49 0 -65 -217z" />
<glyph unicode="&#x178;" d="M14 1186h250l121 -443l120 443h250l-264 -713v-473h-213v473zM98 1430q0 41 32 65.5t75 24.5q41 0 73.5 -26t32.5 -64q0 -41 -31.5 -66t-74.5 -25q-41 0 -74 25t-33 66zM446 1430q0 39 33 64.5t74 25.5t73.5 -26t32.5 -64q0 -41 -31.5 -66t-74.5 -25q-41 0 -74 25t-33 66 z" />
<glyph unicode="&#x2c6;" d="M129 1319l147 209h267l147 -209h-172l-110 133l-109 -133h-170z" />
<glyph unicode="&#x2dc;" d="M98 1331q4 203 183 203q70 0 174 -54.5t143 -54.5q70 0 94 109h29q0 -131 -94 -182q-45 -23 -90 -23q-70 0 -176.5 55.5t-141.5 55.5q-47 0 -67 -39q-9 -13 -23 -70h-31z" />
<glyph unicode="&#x2000;" horiz-adv-x="798" />
<glyph unicode="&#x2001;" horiz-adv-x="1597" />
<glyph unicode="&#x2002;" horiz-adv-x="798" />
<glyph unicode="&#x2003;" horiz-adv-x="1597" />
<glyph unicode="&#x2004;" horiz-adv-x="532" />
<glyph unicode="&#x2005;" horiz-adv-x="399" />
<glyph unicode="&#x2006;" horiz-adv-x="266" />
<glyph unicode="&#x2007;" horiz-adv-x="266" />
<glyph unicode="&#x2008;" horiz-adv-x="199" />
<glyph unicode="&#x2009;" horiz-adv-x="319" />
<glyph unicode="&#x200a;" horiz-adv-x="88" />
<glyph unicode="&#x2010;" d="M272 348v191h275v-191h-275z" />
<glyph unicode="&#x2011;" d="M272 348v191h275v-191h-275z" />
<glyph unicode="&#x2012;" d="M272 348v191h275v-191h-275z" />
<glyph unicode="&#x2013;" />
<glyph unicode="&#x2014;" />
<glyph unicode="&#x2018;" d="M293 1436l94 -430l139 32l-63 441z" />
<glyph unicode="&#x2019;" d="M293 1039l63 440l170 -43l-94 -430z" />
<glyph unicode="&#x201a;" />
<glyph unicode="&#x201c;" d="M129 1436l94 -430l139 32l-63 441zM436 1436l94 -430l140 32l-64 441z" />
<glyph unicode="&#x201d;" d="M109 1039l63 440l170 -43l-94 -430zM457 1039l63 440l170 -43l-94 -430z" />
<glyph unicode="&#x201e;" />
<glyph unicode="&#x2022;" d="M-27 899l316 31l114 293l127 -289l316 -21l-238 -208l80 -306l-272 160l-266 -168l67 307z" />
<glyph unicode="&#x2026;" d="M45 102q0 53 27.5 92t79.5 39q49 0 77.5 -40t28.5 -91t-27.5 -89t-78.5 -38t-79 38t-28 89zM303 102q0 53 27.5 92t79.5 39q49 0 77.5 -40t28.5 -91t-27.5 -89t-78.5 -38t-79 38t-28 89zM561 102q0 53 27.5 92t79.5 39q49 0 77.5 -40t28.5 -91t-27.5 -89t-78.5 -38 t-79 38t-28 89z" />
<glyph unicode="&#x202f;" horiz-adv-x="319" />
<glyph unicode="&#x205f;" horiz-adv-x="399" />
<glyph unicode="&#xe000;" d="M0 0v819h819v-819h-819z" />
</font>
</defs>
</svg>
